<mxfile host="app.diagrams.net" modified="2023-07-20T12:35:34.453Z" agent="Mozilla/5.0 (Windows NT 10.0; Win64; x64) AppleWebKit/537.36 (KHTML, like Gecko) Chrome/114.0.0.0 Safari/537.36 Edg/114.0.1823.82" etag="ueZOD6ffb20aqBekUCEv" version="21.6.3" type="github">
  <diagram name="第 1 页" id="aWa9UIXNNGjPMQMdrHh-">
    <mxGraphModel dx="2236" dy="1906" grid="1" gridSize="10" guides="1" tooltips="1" connect="1" arrows="1" fold="1" page="1" pageScale="1" pageWidth="850" pageHeight="1100" math="0" shadow="0">
      <root>
        <mxCell id="0" />
        <mxCell id="1" parent="0" />
        <mxCell id="-F54f0l1nNdu8TY570Jj-102" value="" style="rounded=0;whiteSpace=wrap;html=1;fontColor=#E6E6E6;strokeColor=#B3B3B3;" vertex="1" parent="1">
          <mxGeometry x="-4" y="-570" width="704" height="580" as="geometry" />
        </mxCell>
        <mxCell id="-F54f0l1nNdu8TY570Jj-103" value="" style="rounded=0;whiteSpace=wrap;html=1;fillColor=#ffe6cc;strokeColor=#d79b00;" vertex="1" parent="1">
          <mxGeometry x="93" y="-47" width="587" height="45" as="geometry" />
        </mxCell>
        <mxCell id="-F54f0l1nNdu8TY570Jj-104" value="" style="rounded=0;whiteSpace=wrap;html=1;strokeColor=#E6E6E6;" vertex="1" parent="1">
          <mxGeometry y="-520" width="80" height="525" as="geometry" />
        </mxCell>
        <mxCell id="-F54f0l1nNdu8TY570Jj-105" value="数据层" style="rounded=0;whiteSpace=wrap;html=1;fillColor=#cce5ff;strokeColor=none;fontStyle=1" vertex="1" parent="1">
          <mxGeometry x="10" y="-50" width="60" height="50" as="geometry" />
        </mxCell>
        <mxCell id="-F54f0l1nNdu8TY570Jj-106" value="" style="rounded=0;whiteSpace=wrap;html=1;fillColor=#ffe6cc;strokeColor=#d79b00;" vertex="1" parent="1">
          <mxGeometry x="90.5" y="-120" width="589.5" height="40" as="geometry" />
        </mxCell>
        <mxCell id="-F54f0l1nNdu8TY570Jj-107" value="能力层" style="rounded=0;whiteSpace=wrap;html=1;fillColor=#cce5ff;strokeColor=none;fontStyle=1" vertex="1" parent="1">
          <mxGeometry x="10" y="-120" width="60" height="40" as="geometry" />
        </mxCell>
        <mxCell id="-F54f0l1nNdu8TY570Jj-108" value="规则引擎" style="text;html=1;align=center;verticalAlign=middle;resizable=0;points=[];autosize=1;fillColor=default;" vertex="1" parent="1">
          <mxGeometry x="105.5" y="-115" width="70" height="30" as="geometry" />
        </mxCell>
        <mxCell id="-F54f0l1nNdu8TY570Jj-109" value="数据中台" style="text;html=1;align=center;verticalAlign=middle;resizable=0;points=[];autosize=1;strokeColor=none;fillColor=none;fontStyle=1;fontSize=16;fontColor=#666666;" vertex="1" parent="1">
          <mxGeometry x="355" y="-77" width="90" height="30" as="geometry" />
        </mxCell>
        <mxCell id="-F54f0l1nNdu8TY570Jj-110" value="任务调度" style="text;html=1;align=center;verticalAlign=middle;resizable=0;points=[];autosize=1;fillColor=default;" vertex="1" parent="1">
          <mxGeometry x="206.5" y="-115" width="70" height="30" as="geometry" />
        </mxCell>
        <mxCell id="-F54f0l1nNdu8TY570Jj-111" value="消息队列" style="text;html=1;align=center;verticalAlign=middle;resizable=0;points=[];autosize=1;fillColor=default;" vertex="1" parent="1">
          <mxGeometry x="307.5" y="-115" width="70" height="30" as="geometry" />
        </mxCell>
        <mxCell id="-F54f0l1nNdu8TY570Jj-112" value="日志管理" style="text;html=1;align=center;verticalAlign=middle;resizable=0;points=[];autosize=1;fillColor=default;" vertex="1" parent="1">
          <mxGeometry x="408.5" y="-115" width="70" height="30" as="geometry" />
        </mxCell>
        <mxCell id="-F54f0l1nNdu8TY570Jj-113" value="接口服务" style="text;html=1;align=center;verticalAlign=middle;resizable=0;points=[];autosize=1;fillColor=default;" vertex="1" parent="1">
          <mxGeometry x="509.5" y="-115" width="70" height="30" as="geometry" />
        </mxCell>
        <mxCell id="-F54f0l1nNdu8TY570Jj-114" value="" style="rounded=0;whiteSpace=wrap;html=1;fillColor=#dae8fc;strokeColor=#6c8ebf;" vertex="1" parent="1">
          <mxGeometry x="93" y="-460" width="587" height="329" as="geometry" />
        </mxCell>
        <mxCell id="-F54f0l1nNdu8TY570Jj-115" value="应用层" style="rounded=0;whiteSpace=wrap;html=1;fillColor=#cce5ff;strokeColor=none;fontStyle=1" vertex="1" parent="1">
          <mxGeometry x="10" y="-450" width="60" height="319" as="geometry" />
        </mxCell>
        <mxCell id="-F54f0l1nNdu8TY570Jj-116" value="" style="rounded=0;whiteSpace=wrap;html=1;dashed=1;fillColor=#fff2cc;strokeColor=#d6b656;" vertex="1" parent="1">
          <mxGeometry x="108" y="-230" width="542" height="90" as="geometry" />
        </mxCell>
        <mxCell id="-F54f0l1nNdu8TY570Jj-117" value="配置中心" style="text;html=1;align=center;verticalAlign=middle;resizable=0;points=[];autosize=1;strokeColor=none;fillColor=none;fontStyle=1;fontSize=14;" vertex="1" parent="1">
          <mxGeometry x="360" y="-269" width="80" height="30" as="geometry" />
        </mxCell>
        <mxCell id="-F54f0l1nNdu8TY570Jj-118" value="调度参数设置" style="text;html=1;align=center;verticalAlign=middle;resizable=0;points=[];autosize=1;strokeColor=#E6E6E6;fillColor=default;fontStyle=1;fontColor=#808080;" vertex="1" parent="1">
          <mxGeometry x="536.25" y="-218" width="100" height="30" as="geometry" />
        </mxCell>
        <mxCell id="-F54f0l1nNdu8TY570Jj-119" value="采购参数设置" style="text;html=1;align=center;verticalAlign=middle;resizable=0;points=[];autosize=1;strokeColor=#E6E6E6;fillColor=default;fontStyle=1;fontColor=#808080;" vertex="1" parent="1">
          <mxGeometry x="536.25" y="-177" width="100" height="30" as="geometry" />
        </mxCell>
        <mxCell id="-F54f0l1nNdu8TY570Jj-120" value="" style="rounded=0;whiteSpace=wrap;html=1;dashed=1;dashPattern=8 8;strokeColor=#808080;fillColor=#f9f7ed;" vertex="1" parent="1">
          <mxGeometry x="108" y="-450" width="392" height="179" as="geometry" />
        </mxCell>
        <mxCell id="-F54f0l1nNdu8TY570Jj-121" value="" style="rounded=0;whiteSpace=wrap;html=1;strokeColor=#E6E6E6;" vertex="1" parent="1">
          <mxGeometry x="123" y="-420" width="120" height="139" as="geometry" />
        </mxCell>
        <mxCell id="-F54f0l1nNdu8TY570Jj-122" value="单店店铺模型" style="text;html=1;align=center;verticalAlign=middle;resizable=0;points=[];autosize=1;strokeColor=none;fillColor=none;fontStyle=1;fontColor=#808080;" vertex="1" parent="1">
          <mxGeometry x="133" y="-420" width="100" height="30" as="geometry" />
        </mxCell>
        <mxCell id="-F54f0l1nNdu8TY570Jj-123" value="" style="rounded=0;whiteSpace=wrap;html=1;strokeColor=#E6E6E6;" vertex="1" parent="1">
          <mxGeometry x="253" y="-420" width="120" height="139" as="geometry" />
        </mxCell>
        <mxCell id="-F54f0l1nNdu8TY570Jj-124" value="单店商品标签" style="text;html=1;align=center;verticalAlign=middle;resizable=0;points=[];autosize=1;strokeColor=none;fillColor=none;fontStyle=1;fontColor=#808080;" vertex="1" parent="1">
          <mxGeometry x="263" y="-420" width="100" height="30" as="geometry" />
        </mxCell>
        <mxCell id="-F54f0l1nNdu8TY570Jj-125" value="" style="rounded=0;whiteSpace=wrap;html=1;strokeColor=#E6E6E6;" vertex="1" parent="1">
          <mxGeometry x="378" y="-420" width="112" height="139" as="geometry" />
        </mxCell>
        <mxCell id="-F54f0l1nNdu8TY570Jj-126" value="单店需求算法" style="text;html=1;align=center;verticalAlign=middle;resizable=0;points=[];autosize=1;strokeColor=none;fillColor=none;fontStyle=1;fontColor=#808080;" vertex="1" parent="1">
          <mxGeometry x="384" y="-420" width="100" height="30" as="geometry" />
        </mxCell>
        <mxCell id="-F54f0l1nNdu8TY570Jj-127" value="" style="rounded=0;whiteSpace=wrap;html=1;fillColor=#ffcccc;strokeColor=#808080;dashed=1;" vertex="1" parent="1">
          <mxGeometry x="533" y="-450" width="120" height="179" as="geometry" />
        </mxCell>
        <mxCell id="-F54f0l1nNdu8TY570Jj-128" value="调度中心" style="text;html=1;align=center;verticalAlign=middle;resizable=0;points=[];autosize=1;strokeColor=none;fillColor=none;fontStyle=1;fontSize=14;" vertex="1" parent="1">
          <mxGeometry x="550" y="-450" width="80" height="30" as="geometry" />
        </mxCell>
        <mxCell id="-F54f0l1nNdu8TY570Jj-129" value="" style="rounded=0;whiteSpace=wrap;html=1;strokeColor=#B3B3B3;fillColor=#fad9d5;" vertex="1" parent="1">
          <mxGeometry x="93" y="-520" width="587" height="50" as="geometry" />
        </mxCell>
        <mxCell id="-F54f0l1nNdu8TY570Jj-130" value="展现层" style="rounded=0;whiteSpace=wrap;html=1;fillColor=#cce5ff;strokeColor=none;fontStyle=1" vertex="1" parent="1">
          <mxGeometry x="10" y="-517.5" width="60" height="45" as="geometry" />
        </mxCell>
        <mxCell id="-F54f0l1nNdu8TY570Jj-131" value="战略全景报表" style="text;html=1;align=center;verticalAlign=middle;resizable=0;points=[];autosize=1;strokeColor=#E6E6E6;fillColor=default;flipH=1;" vertex="1" parent="1">
          <mxGeometry x="180.5" y="-510" width="100" height="30" as="geometry" />
        </mxCell>
        <mxCell id="-F54f0l1nNdu8TY570Jj-132" value="商品分析中心" style="text;html=1;align=center;verticalAlign=middle;resizable=0;points=[];autosize=1;strokeColor=#E6E6E6;fillColor=default;flipH=1;" vertex="1" parent="1">
          <mxGeometry x="365" y="-510" width="100" height="30" as="geometry" />
        </mxCell>
        <mxCell id="-F54f0l1nNdu8TY570Jj-133" value="2268 分析报表" style="text;html=1;align=center;verticalAlign=middle;resizable=0;points=[];autosize=1;strokeColor=#E6E6E6;fillColor=default;" vertex="1" parent="1">
          <mxGeometry x="550" y="-510" width="100" height="30" as="geometry" />
        </mxCell>
        <mxCell id="-F54f0l1nNdu8TY570Jj-134" value="决策中心" style="text;html=1;align=center;verticalAlign=middle;resizable=0;points=[];autosize=1;strokeColor=none;fillColor=none;fontStyle=1" vertex="1" parent="1">
          <mxGeometry x="105.5" y="-510" width="70" height="30" as="geometry" />
        </mxCell>
        <mxCell id="-F54f0l1nNdu8TY570Jj-135" value="……" style="text;html=1;align=center;verticalAlign=middle;resizable=0;points=[];autosize=1;fillColor=default;" vertex="1" parent="1">
          <mxGeometry x="620.5" y="-115" width="50" height="30" as="geometry" />
        </mxCell>
        <mxCell id="-F54f0l1nNdu8TY570Jj-136" value="ERP 数据" style="shape=cylinder3;whiteSpace=wrap;html=1;boundedLbl=1;backgroundOutline=1;size=4.50458233173066;fillColor=#cce5ff;strokeColor=#999999;" vertex="1" parent="1">
          <mxGeometry x="108" y="-37" width="92" height="30" as="geometry" />
        </mxCell>
        <mxCell id="-F54f0l1nNdu8TY570Jj-137" value="简道云数据" style="shape=cylinder3;whiteSpace=wrap;html=1;boundedLbl=1;backgroundOutline=1;size=4.50458233173066;fillColor=#cce5ff;strokeColor=#999999;" vertex="1" parent="1">
          <mxGeometry x="325" y="-37" width="92" height="30" as="geometry" />
        </mxCell>
        <mxCell id="-F54f0l1nNdu8TY570Jj-138" value="云集数据" style="shape=cylinder3;whiteSpace=wrap;html=1;boundedLbl=1;backgroundOutline=1;size=4.50458233173066;fillColor=#cce5ff;strokeColor=#999999;" vertex="1" parent="1">
          <mxGeometry x="541" y="-39.5" width="92" height="30" as="geometry" />
        </mxCell>
        <mxCell id="-F54f0l1nNdu8TY570Jj-139" value="" style="shape=flexArrow;endArrow=classic;html=1;rounded=0;endWidth=14.444444444444443;endSize=5.276851851851852;fillColor=#b1ddf0;strokeColor=#10739e;" edge="1" parent="1">
          <mxGeometry width="50" height="50" relative="1" as="geometry">
            <mxPoint x="182.71000000000004" y="-233" as="sourcePoint" />
            <mxPoint x="182.71000000000004" y="-264" as="targetPoint" />
          </mxGeometry>
        </mxCell>
        <mxCell id="-F54f0l1nNdu8TY570Jj-140" value="" style="shape=flexArrow;endArrow=classic;html=1;rounded=0;endWidth=14.444444444444443;endSize=5.276851851851852;fillColor=#b1ddf0;strokeColor=#10739e;" edge="1" parent="1">
          <mxGeometry width="50" height="50" relative="1" as="geometry">
            <mxPoint x="217.43000000000004" y="-233" as="sourcePoint" />
            <mxPoint x="217.43000000000004" y="-264" as="targetPoint" />
          </mxGeometry>
        </mxCell>
        <mxCell id="-F54f0l1nNdu8TY570Jj-141" value="" style="shape=flexArrow;endArrow=classic;html=1;rounded=0;endWidth=14.444444444444443;endSize=5.276851851851852;fillColor=#b1ddf0;strokeColor=#10739e;" edge="1" parent="1">
          <mxGeometry width="50" height="50" relative="1" as="geometry">
            <mxPoint x="568.86" y="-236" as="sourcePoint" />
            <mxPoint x="568.86" y="-267" as="targetPoint" />
          </mxGeometry>
        </mxCell>
        <mxCell id="-F54f0l1nNdu8TY570Jj-142" value="" style="shape=flexArrow;endArrow=classic;html=1;rounded=0;endWidth=12.584269662921349;endSize=5.47505617977528;fillColor=#b1ddf0;strokeColor=#10739e;" edge="1" parent="1">
          <mxGeometry width="50" height="50" relative="1" as="geometry">
            <mxPoint x="611" y="-236" as="sourcePoint" />
            <mxPoint x="611" y="-267" as="targetPoint" />
          </mxGeometry>
        </mxCell>
        <mxCell id="-F54f0l1nNdu8TY570Jj-143" value="" style="shape=flexArrow;endArrow=classic;html=1;rounded=0;endWidth=14.444444444444443;endSize=5.276851851851852;fillColor=#eeeeee;strokeColor=#36393d;" edge="1" parent="1">
          <mxGeometry width="50" height="50" relative="1" as="geometry">
            <mxPoint x="150.30000000000004" y="-48" as="sourcePoint" />
            <mxPoint x="150.30000000000004" y="-79" as="targetPoint" />
          </mxGeometry>
        </mxCell>
        <mxCell id="-F54f0l1nNdu8TY570Jj-144" value="" style="shape=flexArrow;endArrow=classic;html=1;rounded=0;endWidth=14.444444444444443;endSize=5.276851851851852;fillColor=#eeeeee;strokeColor=#36393d;" edge="1" parent="1">
          <mxGeometry width="50" height="50" relative="1" as="geometry">
            <mxPoint x="185.02000000000007" y="-48" as="sourcePoint" />
            <mxPoint x="185.02000000000007" y="-79" as="targetPoint" />
          </mxGeometry>
        </mxCell>
        <mxCell id="-F54f0l1nNdu8TY570Jj-145" value="" style="shape=flexArrow;endArrow=classic;html=1;rounded=0;endWidth=14.444444444444443;endSize=5.276851851851852;fillColor=#eeeeee;strokeColor=#36393d;" edge="1" parent="1">
          <mxGeometry width="50" height="50" relative="1" as="geometry">
            <mxPoint x="569.3000000000001" y="-78" as="sourcePoint" />
            <mxPoint x="569.3000000000001" y="-47" as="targetPoint" />
          </mxGeometry>
        </mxCell>
        <mxCell id="-F54f0l1nNdu8TY570Jj-146" value="" style="shape=flexArrow;endArrow=classic;html=1;rounded=0;endWidth=14.444444444444443;endSize=5.276851851851852;fillColor=#eeeeee;strokeColor=#36393d;" edge="1" parent="1">
          <mxGeometry width="50" height="50" relative="1" as="geometry">
            <mxPoint x="604.0200000000001" y="-78" as="sourcePoint" />
            <mxPoint x="604.0200000000001" y="-47" as="targetPoint" />
          </mxGeometry>
        </mxCell>
        <mxCell id="-F54f0l1nNdu8TY570Jj-147" value="" style="rounded=0;whiteSpace=wrap;html=1;strokeColor=#E6E6E6;" vertex="1" parent="1">
          <mxGeometry x="118" y="-220" width="412" height="75" as="geometry" />
        </mxCell>
        <mxCell id="-F54f0l1nNdu8TY570Jj-148" value="同期企划参数" style="text;html=1;align=center;verticalAlign=middle;resizable=0;points=[];autosize=1;strokeColor=none;fillColor=#cce5ff;" vertex="1" parent="1">
          <mxGeometry x="191.5" y="-216" width="100" height="30" as="geometry" />
        </mxCell>
        <mxCell id="-F54f0l1nNdu8TY570Jj-149" value="商品生命周期" style="text;html=1;align=center;verticalAlign=middle;resizable=0;points=[];autosize=1;strokeColor=none;fillColor=#cce5ff;" vertex="1" parent="1">
          <mxGeometry x="191.5" y="-181" width="100" height="30" as="geometry" />
        </mxCell>
        <mxCell id="-F54f0l1nNdu8TY570Jj-150" value="商品标签规则" style="text;html=1;align=center;verticalAlign=middle;resizable=0;points=[];autosize=1;strokeColor=none;fillColor=#cce5ff;" vertex="1" parent="1">
          <mxGeometry x="300" y="-216" width="100" height="30" as="geometry" />
        </mxCell>
        <mxCell id="-F54f0l1nNdu8TY570Jj-151" value="合并释放规则" style="text;html=1;align=center;verticalAlign=middle;resizable=0;points=[];autosize=1;strokeColor=none;fillColor=#cce5ff;" vertex="1" parent="1">
          <mxGeometry x="413" y="-216" width="100" height="30" as="geometry" />
        </mxCell>
        <mxCell id="-F54f0l1nNdu8TY570Jj-152" value="智能预警分析" style="text;html=1;align=center;verticalAlign=middle;resizable=0;points=[];autosize=1;strokeColor=none;fillColor=#cce5ff;" vertex="1" parent="1">
          <mxGeometry x="413" y="-181" width="100" height="30" as="geometry" />
        </mxCell>
        <mxCell id="-F54f0l1nNdu8TY570Jj-153" value="动作策略配置" style="text;html=1;align=center;verticalAlign=middle;resizable=0;points=[];autosize=1;strokeColor=none;fillColor=#cce5ff;" vertex="1" parent="1">
          <mxGeometry x="300" y="-181" width="100" height="30" as="geometry" />
        </mxCell>
        <mxCell id="-F54f0l1nNdu8TY570Jj-154" value="企划参数" style="text;html=1;align=center;verticalAlign=middle;resizable=0;points=[];autosize=1;strokeColor=none;fillColor=none;fontStyle=1;fontColor=#808080;" vertex="1" parent="1">
          <mxGeometry x="115.5" y="-205.5" width="70" height="30" as="geometry" />
        </mxCell>
        <mxCell id="-F54f0l1nNdu8TY570Jj-155" value="门店销售目标" style="rounded=1;whiteSpace=wrap;html=1;arcSize=7;fillColor=#cce5ff;strokeColor=none;" vertex="1" parent="1">
          <mxGeometry x="132.5" y="-331" width="100.5" height="41" as="geometry" />
        </mxCell>
        <mxCell id="-F54f0l1nNdu8TY570Jj-156" value="门店档案管理" style="rounded=1;whiteSpace=wrap;html=1;arcSize=7;fillColor=#cce5ff;strokeColor=none;" vertex="1" parent="1">
          <mxGeometry x="132.5" y="-386.5" width="100.5" height="41" as="geometry" />
        </mxCell>
        <mxCell id="-F54f0l1nNdu8TY570Jj-157" value="单品状态表" style="rounded=1;whiteSpace=wrap;html=1;arcSize=7;fillColor=#cce5ff;strokeColor=none;" vertex="1" parent="1">
          <mxGeometry x="259.5" y="-328.75" width="100.5" height="41" as="geometry" />
        </mxCell>
        <mxCell id="-F54f0l1nNdu8TY570Jj-158" value="商品档案管理" style="rounded=1;whiteSpace=wrap;html=1;arcSize=7;fillColor=#cce5ff;strokeColor=none;" vertex="1" parent="1">
          <mxGeometry x="259.5" y="-384.25" width="100.5" height="41" as="geometry" />
        </mxCell>
        <mxCell id="-F54f0l1nNdu8TY570Jj-159" value="门店批次需求" style="rounded=1;whiteSpace=wrap;html=1;arcSize=7;fillColor=#cce5ff;strokeColor=none;" vertex="1" parent="1">
          <mxGeometry x="387.75" y="-384.25" width="92.5" height="94.25" as="geometry" />
        </mxCell>
        <mxCell id="-F54f0l1nNdu8TY570Jj-160" value="&lt;b style=&quot;border-color: var(--border-color); font-size: 14px;&quot;&gt;单店需求&lt;/b&gt;" style="text;html=1;align=center;verticalAlign=middle;resizable=0;points=[];autosize=1;strokeColor=none;fillColor=none;fontSize=14;" vertex="1" parent="1">
          <mxGeometry x="273" y="-450" width="80" height="30" as="geometry" />
        </mxCell>
        <mxCell id="-F54f0l1nNdu8TY570Jj-161" value="智能订单管理" style="rounded=1;whiteSpace=wrap;html=1;arcSize=7;fillColor=#cce5ff;strokeColor=none;" vertex="1" parent="1">
          <mxGeometry x="540.5" y="-331" width="100.5" height="41" as="geometry" />
        </mxCell>
        <mxCell id="-F54f0l1nNdu8TY570Jj-162" value="需求调度管理" style="rounded=1;whiteSpace=wrap;html=1;arcSize=7;fillColor=#cce5ff;strokeColor=none;" vertex="1" parent="1">
          <mxGeometry x="539.25" y="-411" width="100.5" height="41" as="geometry" />
        </mxCell>
        <mxCell id="-F54f0l1nNdu8TY570Jj-163" value="" style="shape=flexArrow;endArrow=classic;html=1;rounded=0;endWidth=8.764044943820224;endSize=4.357303370786517;fillColor=#FFE6CC;strokeColor=none;" edge="1" parent="1">
          <mxGeometry width="50" height="50" relative="1" as="geometry">
            <mxPoint x="503" y="-405.12" as="sourcePoint" />
            <mxPoint x="533" y="-405.12" as="targetPoint" />
          </mxGeometry>
        </mxCell>
        <mxCell id="-F54f0l1nNdu8TY570Jj-164" value="" style="shape=flexArrow;endArrow=classic;html=1;rounded=0;endWidth=8.764044943820224;endSize=4.357303370786517;fillColor=#FFE6CC;strokeColor=none;" edge="1" parent="1">
          <mxGeometry width="50" height="50" relative="1" as="geometry">
            <mxPoint x="503" y="-328.75" as="sourcePoint" />
            <mxPoint x="533" y="-328.75" as="targetPoint" />
          </mxGeometry>
        </mxCell>
        <mxCell id="-F54f0l1nNdu8TY570Jj-165" value="单店企划项目业务架构图" style="text;html=1;align=center;verticalAlign=middle;resizable=0;points=[];autosize=1;strokeColor=none;fillColor=none;fontStyle=1;fontSize=20;" vertex="1" parent="1">
          <mxGeometry x="239.5" y="-570" width="240" height="40" as="geometry" />
        </mxCell>
      </root>
    </mxGraphModel>
  </diagram>
</mxfile>
